        <svg width="220" height="57" viewBox="0 0 220 57" id="logo" fill="none" xmlns="http://www.w3.org/2000/svg">
            <g clip-path="url(#clip0_84_2)">
                <path d="M122.781 15.1555C111.815 33.873 112.584 32.2666 115.308 31.9873C117.473 31.7778 118.031 31.1492 123.968 21.1619C127.39 15.2952 130.463 10.3365 130.673 10.127C130.952 9.84759 134.165 14.7365 137.936 20.8825C144.152 31.3587 144.781 32.127 146.736 32.127C147.854 32.127 148.762 31.9174 148.762 31.7079C148.762 31.2889 132.069 2.72378 131.371 1.88569C131.092 1.60632 127.25 7.61267 122.781 15.1555Z" fill="#4A4A4A" class="svg-elem-1"></path>
                <path id="M" d="M2.79346 16.8317V31.4984L4.74901 31.2889L6.63473 31.0794L6.98393 20.673L7.33314 10.2667L14.5966 19.4857C18.5776 24.5143 22.0696 28.7746 22.349 28.9841C22.6982 29.1937 26.33 25.073 30.5204 19.8349L38.0633 10.3365L38.2728 20.8825L38.4823 31.4286H40.5077H42.603V16.7619V2.09524H40.9268C38.9712 2.09524 37.7839 3.42222 29.3331 14.4571C26.0506 18.7873 23.1173 22.2794 22.6982 22.2794C22.349 22.2794 18.5776 17.7397 14.3173 12.2222C7.75219 3.63175 6.35536 2.16508 4.74901 2.16508L2.79346 2.09524V16.8317Z" fill="#4A4A4A" class="svg-elem-2"></path>
                <path d="M48.8887 11.3143C48.8887 16.4127 49.2379 21.8603 49.6569 23.3968C51.1934 29.054 55.1045 31.4286 62.9966 31.4286C69.9109 31.4286 72.4252 30.1016 74.9395 25.2127C76.7553 21.581 76.8252 20.8826 76.8252 11.7333V2.09525H74.7998H72.7744L72.495 12.0127C72.1458 25.8413 71.0284 27.5175 62.6474 27.5175C54.3363 27.5175 53.0791 25.4222 53.0791 11.5238V2.09525H50.9839H48.8887V11.3143Z" fill="#4A4A4A" class="svg-elem-3"></path>
                <path d="M81.7139 3.84125V5.58728H95.6821H109.65V3.84125V2.09522H95.6821H81.7139V3.84125Z" fill="#4A4A4A" class="svg-elem-4"></path>
                <path d="M152.254 3.84125V5.58728H166.292H180.26L180.051 3.98093C179.841 2.44442 179.771 2.44442 166.082 2.2349L152.254 2.09522V3.84125Z" fill="#4A4A4A" class="svg-elem-5"></path>
                <path d="M182.984 3.84125V5.58728H196.952H210.92V3.84125V2.09522H196.952H182.984V3.84125Z" fill="#4A4A4A" class="svg-elem-6"></path>
                <path d="M213.714 16.7619V31.4286H215.809H217.904V16.7619V2.09525H215.809H213.714V16.7619Z" fill="#4A4A4A" class="svg-elem-7"></path>
                <path d="M93.5869 20.6032V31.4286H95.6822H97.7774V20.6032V9.77779H95.6822H93.5869V20.6032Z" fill="#4A4A4A" class="svg-elem-8"></path>
                <path d="M164.127 20.6032V31.4286H165.873H167.619V20.6032V9.77779H165.873H164.127V20.6032Z" fill="#4A4A4A" class="svg-elem-9"></path>
                <path d="M194.857 20.6032V31.4286H196.952H199.047V20.6032V9.77779H196.952H194.857V20.6032Z" fill="#4A4A4A" class="svg-elem-10"></path>
                <path d="M128.298 27.3778L125.784 31.7778L131.092 31.9873C133.956 32.127 136.47 32.0572 136.679 31.9175C137.029 31.4984 132 23.0477 131.371 23.0477C131.092 23.0477 129.765 25.0032 128.298 27.3778Z" fill="#CCAC94" class="svg-elem-11"></path>
                <path d="M57.7727 45H56.3636C56.2803 44.5947 56.1345 44.2386 55.9261 43.9318C55.7216 43.625 55.4716 43.3674 55.1761 43.1591C54.8845 42.947 54.5606 42.7879 54.2045 42.6818C53.8485 42.5758 53.4773 42.5227 53.0909 42.5227C52.3864 42.5227 51.7481 42.7008 51.1761 43.0568C50.608 43.4129 50.1553 43.9375 49.8182 44.6307C49.4848 45.3239 49.3182 46.1742 49.3182 47.1818C49.3182 48.1894 49.4848 49.0398 49.8182 49.733C50.1553 50.4261 50.608 50.9508 51.1761 51.3068C51.7481 51.6629 52.3864 51.8409 53.0909 51.8409C53.4773 51.8409 53.8485 51.7879 54.2045 51.6818C54.5606 51.5758 54.8845 51.4186 55.1761 51.2102C55.4716 50.9981 55.7216 50.7386 55.9261 50.4318C56.1345 50.1212 56.2803 49.7652 56.3636 49.3636H57.7727C57.6667 49.9583 57.4735 50.4905 57.1932 50.9602C56.9129 51.4299 56.5644 51.8295 56.1477 52.1591C55.7311 52.4848 55.2633 52.733 54.7443 52.9034C54.2292 53.0739 53.678 53.1591 53.0909 53.1591C52.0985 53.1591 51.2159 52.9167 50.4432 52.4318C49.6705 51.947 49.0625 51.2576 48.6193 50.3636C48.1761 49.4697 47.9545 48.4091 47.9545 47.1818C47.9545 45.9545 48.1761 44.8939 48.6193 44C49.0625 43.1061 49.6705 42.4167 50.4432 41.9318C51.2159 41.447 52.0985 41.2045 53.0909 41.2045C53.678 41.2045 54.2292 41.2898 54.7443 41.4602C55.2633 41.6307 55.7311 41.8807 56.1477 42.2102C56.5644 42.536 56.9129 42.9337 57.1932 43.4034C57.4735 43.8693 57.6667 44.4015 57.7727 45ZM76.2679 47.1818C76.2679 48.4091 76.0463 49.4697 75.6031 50.3636C75.1599 51.2576 74.552 51.947 73.7793 52.4318C73.0065 52.9167 72.124 53.1591 71.1315 53.1591C70.1391 53.1591 69.2565 52.9167 68.4838 52.4318C67.7111 51.947 67.1031 51.2576 66.6599 50.3636C66.2168 49.4697 65.9952 48.4091 65.9952 47.1818C65.9952 45.9545 66.2168 44.8939 66.6599 44C67.1031 43.1061 67.7111 42.4167 68.4838 41.9318C69.2565 41.447 70.1391 41.2045 71.1315 41.2045C72.124 41.2045 73.0065 41.447 73.7793 41.9318C74.552 42.4167 75.1599 43.1061 75.6031 44C76.0463 44.8939 76.2679 45.9545 76.2679 47.1818ZM74.9043 47.1818C74.9043 46.1742 74.7357 45.3239 74.3986 44.6307C74.0652 43.9375 73.6126 43.4129 73.0406 43.0568C72.4724 42.7008 71.8361 42.5227 71.1315 42.5227C70.427 42.5227 69.7887 42.7008 69.2168 43.0568C68.6486 43.4129 68.1959 43.9375 67.8588 44.6307C67.5255 45.3239 67.3588 46.1742 67.3588 47.1818C67.3588 48.1894 67.5255 49.0398 67.8588 49.733C68.1959 50.4261 68.6486 50.9508 69.2168 51.3068C69.7887 51.6629 70.427 51.8409 71.1315 51.8409C71.8361 51.8409 72.4724 51.6629 73.0406 51.3068C73.6126 50.9508 74.0652 50.4261 74.3986 49.733C74.7357 49.0398 74.9043 48.1894 74.9043 47.1818ZM85.0372 53V41.3636H88.969C89.8781 41.3636 90.6243 41.5189 91.2077 41.8295C91.791 42.1364 92.2228 42.5587 92.5031 43.0966C92.7834 43.6345 92.9236 44.2462 92.9236 44.9318C92.9236 45.6174 92.7834 46.2254 92.5031 46.7557C92.2228 47.286 91.7929 47.7027 91.2134 48.0057C90.6338 48.3049 89.8933 48.4545 88.9918 48.4545H85.8099V47.1818H88.9463C89.5675 47.1818 90.0675 47.0909 90.4463 46.9091C90.8289 46.7273 91.1054 46.4697 91.2759 46.1364C91.4501 45.7992 91.5372 45.3977 91.5372 44.9318C91.5372 44.4659 91.4501 44.0587 91.2759 43.7102C91.1016 43.3617 90.8232 43.0928 90.4406 42.9034C90.058 42.7102 89.5524 42.6136 88.9236 42.6136H86.4463V53H85.0372ZM90.5145 47.7727L93.3781 53H91.7418L88.9236 47.7727H90.5145ZM101.035 42.6136V41.3636H109.763V42.6136H106.103V53H104.694V42.6136H101.035ZM119.746 41.3636V53H118.337V41.3636H119.746ZM138.199 41.3636V53H136.835L130.494 43.8636H130.381V53H128.972V41.3636H130.335L136.699 50.5227H136.812V41.3636H138.199ZM147.896 53H146.418L150.691 41.3636H152.146L156.418 53H154.941L151.464 43.2045H151.373L147.896 53ZM148.441 48.4545H154.396V49.7045H148.441V48.4545ZM170.995 44.2727C170.926 43.697 170.65 43.25 170.165 42.9318C169.68 42.6136 169.086 42.4545 168.381 42.4545C167.866 42.4545 167.415 42.5379 167.029 42.7045C166.646 42.8712 166.347 43.1004 166.131 43.392C165.919 43.6837 165.813 44.0152 165.813 44.3864C165.813 44.697 165.887 44.964 166.034 45.1875C166.186 45.4072 166.379 45.5909 166.614 45.7386C166.849 45.8826 167.095 46.0019 167.353 46.0966C167.61 46.1875 167.847 46.2614 168.063 46.3182L169.245 46.6364C169.548 46.7159 169.885 46.8258 170.256 46.9659C170.631 47.1061 170.989 47.2973 171.33 47.5398C171.675 47.7784 171.959 48.0852 172.182 48.4602C172.406 48.8352 172.517 49.2955 172.517 49.8409C172.517 50.4697 172.353 51.0379 172.023 51.5455C171.697 52.053 171.22 52.4564 170.591 52.7557C169.966 53.0549 169.207 53.2045 168.313 53.2045C167.479 53.2045 166.758 53.0701 166.148 52.8011C165.542 52.5322 165.065 52.1572 164.716 51.6761C164.371 51.1951 164.176 50.6364 164.131 50H165.586C165.623 50.4394 165.771 50.803 166.029 51.0909C166.29 51.375 166.62 51.5871 167.017 51.7273C167.419 51.8636 167.851 51.9318 168.313 51.9318C168.851 51.9318 169.334 51.8447 169.762 51.6705C170.19 51.4924 170.529 51.2462 170.779 50.9318C171.029 50.6136 171.154 50.2424 171.154 49.8182C171.154 49.4318 171.046 49.1174 170.83 48.875C170.614 48.6326 170.33 48.4356 169.978 48.2841C169.625 48.1326 169.245 48 168.836 47.8864L167.404 47.4773C166.495 47.2159 165.775 46.8428 165.245 46.358C164.714 45.8731 164.449 45.2386 164.449 44.4545C164.449 43.803 164.625 43.2348 164.978 42.75C165.334 42.2614 165.811 41.8826 166.409 41.6136C167.012 41.3409 167.684 41.2045 168.426 41.2045C169.176 41.2045 169.843 41.339 170.426 41.608C171.01 41.8731 171.472 42.2367 171.813 42.6989C172.157 43.161 172.339 43.6856 172.358 44.2727H170.995Z" fill="#4A4A4A" class="svg-elem-12"></path>
            </g>
            <defs>
                <clipPath id="clip0_84_2">
                    <rect width="220" height="56.5714" fill="white" class="svg-elem-13"></rect>
                </clipPath>
            </defs>
        </svg>